<mxfile host="Electron" agent="Mozilla/5.0 (Windows NT 10.0; Win64; x64) AppleWebKit/537.36 (KHTML, like Gecko) draw.io/27.0.9 Chrome/134.0.6998.205 Electron/35.4.0 Safari/537.36" version="27.0.9">
  <diagram id="XXd6pPZVZHxNrgmQ0Vfv" name="Page-1">
    <mxGraphModel dx="1572" dy="1128" grid="0" gridSize="10" guides="1" tooltips="1" connect="1" arrows="1" fold="1" page="1" pageScale="1" pageWidth="827" pageHeight="1169" math="0" shadow="0">
      <root>
        <mxCell id="0" />
        <mxCell id="1" parent="0" />
        <mxCell id="9muo8EnsxRPbKmmt75Aq-95" value="" style="group" vertex="1" connectable="0" parent="1">
          <mxGeometry x="32" y="72" width="753" height="678" as="geometry" />
        </mxCell>
        <mxCell id="8" value="Gestión contratos" style="shape=umlLifeline;perimeter=lifelinePerimeter;whiteSpace=wrap;html=1;container=1;collapsible=0;recursiveResize=0;outlineConnect=0;rounded=1;shadow=0;comic=0;labelBackgroundColor=none;strokeWidth=1;fontFamily=Verdana;fontSize=12;align=center;fillColor=#dae8fc;strokeColor=#6c8ebf;" parent="9muo8EnsxRPbKmmt75Aq-95" vertex="1">
          <mxGeometry x="499.890756302521" y="3.3564356435643563" width="127.34558823529414" height="648.910891089109" as="geometry" />
        </mxCell>
        <mxCell id="70" value="" style="html=1;points=[];perimeter=orthogonalPerimeter;rounded=0;shadow=0;comic=0;labelBackgroundColor=none;strokeWidth=1;fontFamily=Verdana;fontSize=12;align=center;" parent="8" vertex="1">
          <mxGeometry x="57.7405462184874" y="375.92079207920796" width="7.9096638655462215" height="195.79207920792078" as="geometry" />
        </mxCell>
        <mxCell id="9muo8EnsxRPbKmmt75Aq-86" value="Contratacion" style="html=1;verticalAlign=bottom;endArrow=block;labelBackgroundColor=none;fontFamily=Verdana;fontSize=12;edgeStyle=elbowEdgeStyle;elbow=vertical;" edge="1" parent="8" source="82">
          <mxGeometry relative="1" as="geometry">
            <mxPoint x="-37.966386554621856" y="365.8514851485149" as="sourcePoint" />
            <mxPoint x="53.7857142857143" y="365.8514851485149" as="targetPoint" />
          </mxGeometry>
        </mxCell>
        <mxCell id="9" value="Informes nómina" style="shape=umlLifeline;perimeter=lifelinePerimeter;whiteSpace=wrap;html=1;container=1;collapsible=0;recursiveResize=0;outlineConnect=0;rounded=1;shadow=0;comic=0;labelBackgroundColor=none;strokeWidth=1;fontFamily=Verdana;fontSize=12;align=center;" parent="9muo8EnsxRPbKmmt75Aq-95" vertex="1">
          <mxGeometry x="673.9033613445379" y="5.034653465346536" width="79.0966386554622" height="648.910891089109" as="geometry" />
        </mxCell>
        <mxCell id="73" value="" style="html=1;points=[];perimeter=orthogonalPerimeter;rounded=0;shadow=0;comic=0;labelBackgroundColor=none;strokeWidth=1;fontFamily=Verdana;fontSize=12;align=center;" parent="9" vertex="1">
          <mxGeometry x="35.59348739495798" y="569.4752475247524" width="7.90966386554622" height="70.4851485148515" as="geometry" />
        </mxCell>
        <mxCell id="10" value="Entrada Registro" style="shape=umlLifeline;perimeter=lifelinePerimeter;whiteSpace=wrap;html=1;container=1;collapsible=0;recursiveResize=0;outlineConnect=0;rounded=1;shadow=0;comic=0;labelBackgroundColor=none;strokeWidth=1;fontFamily=Verdana;fontSize=12;align=center;" parent="9muo8EnsxRPbKmmt75Aq-95" vertex="1">
          <mxGeometry x="75.14180672268908" y="5.594059405940595" width="109.15336134453783" height="652.2673267326733" as="geometry" />
        </mxCell>
        <mxCell id="11" value="" style="html=1;points=[];perimeter=orthogonalPerimeter;rounded=0;shadow=0;comic=0;labelBackgroundColor=none;strokeWidth=1;fontFamily=Verdana;fontSize=12;align=center;" parent="10" vertex="1">
          <mxGeometry x="52.20378151260505" y="104.04950495049506" width="7.90966386554622" height="50.34653465346535" as="geometry" />
        </mxCell>
        <mxCell id="59" style="edgeStyle=none;html=1;dashed=1;" parent="10" edge="1">
          <mxGeometry relative="1" as="geometry">
            <mxPoint x="166.89390756302524" y="236.0693069306931" as="sourcePoint" />
            <mxPoint x="60.11344537815127" y="236.0693069306931" as="targetPoint" />
          </mxGeometry>
        </mxCell>
        <mxCell id="60" value="Revisión" style="edgeLabel;html=1;align=center;verticalAlign=middle;resizable=0;points=[];" parent="59" vertex="1" connectable="0">
          <mxGeometry x="0.1688" y="-1" relative="1" as="geometry">
            <mxPoint x="15" y="-9" as="offset" />
          </mxGeometry>
        </mxCell>
        <mxCell id="9muo8EnsxRPbKmmt75Aq-91" style="edgeStyle=none;html=1;dashed=1;" edge="1" parent="10" target="56">
          <mxGeometry relative="1" as="geometry">
            <mxPoint x="273.2788865546221" y="300.960396039604" as="sourcePoint" />
            <mxPoint x="-74.35084033613447" y="300.960396039604" as="targetPoint" />
            <Array as="points">
              <mxPoint x="189.04096638655463" y="300.960396039604" />
            </Array>
          </mxGeometry>
        </mxCell>
        <mxCell id="9muo8EnsxRPbKmmt75Aq-92" value="Evaluación" style="edgeLabel;html=1;align=center;verticalAlign=middle;resizable=0;points=[];" vertex="1" connectable="0" parent="9muo8EnsxRPbKmmt75Aq-91">
          <mxGeometry x="0.1688" y="-1" relative="1" as="geometry">
            <mxPoint x="15" y="-9" as="offset" />
          </mxGeometry>
        </mxCell>
        <mxCell id="25" value="Revisión" style="html=1;verticalAlign=bottom;endArrow=block;labelBackgroundColor=none;fontFamily=Verdana;fontSize=12;edgeStyle=elbowEdgeStyle;elbow=vertical;" parent="9muo8EnsxRPbKmmt75Aq-95" source="11" edge="1">
          <mxGeometry relative="1" as="geometry">
            <mxPoint x="170.05777310924373" y="132.01980198019803" as="sourcePoint" />
            <mxPoint x="243.61764705882356" y="117.47524752475248" as="targetPoint" />
          </mxGeometry>
        </mxCell>
        <mxCell id="26" value="Publicación" style="html=1;verticalAlign=bottom;endArrow=block;labelBackgroundColor=none;fontFamily=Verdana;fontSize=12;edgeStyle=elbowEdgeStyle;elbow=vertical;" parent="9muo8EnsxRPbKmmt75Aq-95" edge="1">
          <mxGeometry relative="1" as="geometry">
            <mxPoint x="253.90021008403363" y="136.49504950495052" as="sourcePoint" />
            <mxPoint x="345.65231092436983" y="136.49504950495052" as="targetPoint" />
          </mxGeometry>
        </mxCell>
        <mxCell id="57" style="edgeStyle=none;html=1;" parent="9muo8EnsxRPbKmmt75Aq-95" source="56" target="10" edge="1">
          <mxGeometry relative="1" as="geometry">
            <Array as="points">
              <mxPoint x="90.96113445378151" y="110.76237623762377" />
            </Array>
          </mxGeometry>
        </mxCell>
        <mxCell id="58" value="Solicita Convocatoria" style="edgeLabel;html=1;align=center;verticalAlign=middle;resizable=0;points=[];" parent="57" vertex="1" connectable="0">
          <mxGeometry x="0.0547" y="1" relative="1" as="geometry">
            <mxPoint x="-1" y="-9" as="offset" />
          </mxGeometry>
        </mxCell>
        <mxCell id="56" value="Investigador" style="shape=umlLifeline;participant=umlActor;perimeter=lifelinePerimeter;whiteSpace=wrap;html=1;container=1;collapsible=0;recursiveResize=0;verticalAlign=top;spacingTop=36;outlineConnect=0;" parent="9muo8EnsxRPbKmmt75Aq-95" vertex="1">
          <mxGeometry width="18.192226890756306" height="678" as="geometry" />
        </mxCell>
        <mxCell id="74" style="edgeStyle=none;html=1;entryX=-0.1;entryY=0.018;entryDx=0;entryDy=0;entryPerimeter=0;" parent="9muo8EnsxRPbKmmt75Aq-95" source="70" target="73" edge="1">
          <mxGeometry relative="1" as="geometry" />
        </mxCell>
        <mxCell id="75" value="Emite" style="edgeLabel;html=1;align=center;verticalAlign=middle;resizable=0;points=[];" parent="74" vertex="1" connectable="0">
          <mxGeometry x="-0.3286" y="-1" relative="1" as="geometry">
            <mxPoint x="18" y="-12" as="offset" />
          </mxGeometry>
        </mxCell>
        <mxCell id="76" value="Gestor" style="shape=umlLifeline;participant=umlActor;perimeter=lifelinePerimeter;whiteSpace=wrap;html=1;container=1;collapsible=0;recursiveResize=0;verticalAlign=bottom;spacingTop=36;outlineConnect=0;labelPosition=center;verticalLabelPosition=top;align=center;strokeWidth=3;" parent="9muo8EnsxRPbKmmt75Aq-95" vertex="1">
          <mxGeometry x="242.0357142857143" width="15.81932773109244" height="652.2673267326733" as="geometry" />
        </mxCell>
        <mxCell id="78" value="Solicitantes" style="shape=umlLifeline;participant=umlActor;perimeter=lifelinePerimeter;whiteSpace=wrap;html=1;container=1;collapsible=0;recursiveResize=0;verticalAlign=bottom;spacingTop=36;outlineConnect=0;labelPosition=center;verticalLabelPosition=top;align=center;" parent="9muo8EnsxRPbKmmt75Aq-95" vertex="1">
          <mxGeometry x="344.86134453781517" y="3.3564356435643563" width="15.81932773109244" height="652.2673267326733" as="geometry" />
        </mxCell>
        <mxCell id="79" value="" style="html=1;points=[];perimeter=orthogonalPerimeter;rounded=0;shadow=0;comic=0;labelBackgroundColor=none;strokeWidth=1;fontFamily=Verdana;fontSize=12;align=center;" parent="78" vertex="1">
          <mxGeometry x="3.95483193277311" y="232.7128712871287" width="7.90966386554622" height="95.09900990099011" as="geometry" />
        </mxCell>
        <mxCell id="82" value="Gestor" style="shape=umlLifeline;participant=umlActor;perimeter=lifelinePerimeter;whiteSpace=wrap;html=1;container=1;collapsible=0;recursiveResize=0;verticalAlign=bottom;spacingTop=36;outlineConnect=0;labelPosition=center;verticalLabelPosition=top;align=center;strokeWidth=3;" parent="9muo8EnsxRPbKmmt75Aq-95" vertex="1">
          <mxGeometry x="447.68697478991606" y="1.6782178217821782" width="15.81932773109244" height="652.2673267326733" as="geometry" />
        </mxCell>
        <mxCell id="83" value="" style="html=1;points=[];perimeter=orthogonalPerimeter;rounded=0;shadow=0;comic=0;labelBackgroundColor=none;strokeWidth=1;fontFamily=Verdana;fontSize=12;align=center;" parent="82" vertex="1">
          <mxGeometry x="3.95483193277311" y="309.3514851485149" width="7.90966386554622" height="63.772277227722775" as="geometry" />
        </mxCell>
        <mxCell id="77" value="" style="html=1;points=[];perimeter=orthogonalPerimeter;rounded=0;shadow=0;comic=0;labelBackgroundColor=none;strokeWidth=1;fontFamily=Verdana;fontSize=12;align=center;" parent="9muo8EnsxRPbKmmt75Aq-95" vertex="1">
          <mxGeometry x="245.9905462184874" y="124.18811881188121" width="7.90966386554622" height="126.42574257425741" as="geometry" />
        </mxCell>
        <mxCell id="9muo8EnsxRPbKmmt75Aq-85" value="Contratacion" style="html=1;verticalAlign=bottom;endArrow=block;labelBackgroundColor=none;fontFamily=Verdana;fontSize=12;edgeStyle=elbowEdgeStyle;elbow=vertical;" edge="1" parent="9muo8EnsxRPbKmmt75Aq-95">
          <mxGeometry x="0.2759" y="7" relative="1" as="geometry">
            <mxPoint x="355.93487394957987" y="327.0175247524753" as="sourcePoint" />
            <mxPoint x="447.68697478991606" y="327.0175247524753" as="targetPoint" />
            <mxPoint as="offset" />
          </mxGeometry>
        </mxCell>
        <mxCell id="9muo8EnsxRPbKmmt75Aq-89" style="edgeStyle=none;html=1;dashed=1;" edge="1" parent="9muo8EnsxRPbKmmt75Aq-95">
          <mxGeometry relative="1" as="geometry">
            <mxPoint x="348.0252100840337" y="242.78217821782178" as="sourcePoint" />
            <mxPoint x="256.2731092436975" y="242.78217821782178" as="targetPoint" />
          </mxGeometry>
        </mxCell>
        <mxCell id="9muo8EnsxRPbKmmt75Aq-90" value="Subsanación" style="edgeLabel;html=1;align=center;verticalAlign=middle;resizable=0;points=[];" vertex="1" connectable="0" parent="9muo8EnsxRPbKmmt75Aq-89">
          <mxGeometry x="0.1688" y="-1" relative="1" as="geometry">
            <mxPoint x="15" y="-9" as="offset" />
          </mxGeometry>
        </mxCell>
        <mxCell id="9muo8EnsxRPbKmmt75Aq-93" style="edgeStyle=none;html=1;dashed=1;" edge="1" parent="9muo8EnsxRPbKmmt75Aq-95" source="9">
          <mxGeometry relative="1" as="geometry">
            <mxPoint x="560.795168067227" y="619.8217821782179" as="sourcePoint" />
            <mxPoint x="454.01470588235304" y="619.8217821782179" as="targetPoint" />
          </mxGeometry>
        </mxCell>
        <mxCell id="9muo8EnsxRPbKmmt75Aq-94" value="Revisión" style="edgeLabel;html=1;align=center;verticalAlign=middle;resizable=0;points=[];" vertex="1" connectable="0" parent="9muo8EnsxRPbKmmt75Aq-93">
          <mxGeometry x="0.1688" y="-1" relative="1" as="geometry">
            <mxPoint x="15" y="-9" as="offset" />
          </mxGeometry>
        </mxCell>
      </root>
    </mxGraphModel>
  </diagram>
</mxfile>
